<?xml version="1.0" encoding="UTF-8"?>
<!-- Generator: visioncortex VTracer -->
<svg id="svg" version="1.1" xmlns="http://www.w3.org/2000/svg" viewBox="0 0 470 486" style="display: block;"><path d="M0 0 C4.14253823 0.00912737 8.28501127 -0.0049569 12.42753613 -0.01591969 C20.5224339 -0.03362776 28.61718262 -0.02989966 36.71208603 -0.01826912 C43.29530259 -0.00920516 49.87847763 -0.00802356 56.46169865 -0.01236439 C57.40159815 -0.01297732 58.34149765 -0.01359025 59.30987896 -0.01422176 C61.21974545 -0.01550076 63.12961194 -0.01679762 65.03947841 -0.01811212 C82.91255466 -0.02949516 100.7855486 -0.01643971 118.65861135 0.00508934 C133.96913966 0.02296117 149.27954663 0.01985109 164.59007275 0.0014143 C182.40434762 -0.02002768 200.21855052 -0.02839981 218.0328365 -0.01613665 C219.93504754 -0.01486255 221.83725859 -0.01360507 223.73946965 -0.01236439 C224.67520076 -0.01174729 225.61093188 -0.01113018 226.57501848 -0.01049438 C233.14501665 -0.00705167 239.71496887 -0.0128464 246.28495991 -0.0222826 C254.29911991 -0.0335409 262.31312334 -0.03038231 270.32726557 -0.00915962 C274.41023484 0.00129907 278.49294378 0.00556196 282.57591069 -0.00775623 C287.01470057 -0.02201534 291.45307107 -0.00490492 295.89184582 0.0149641 C297.16405265 0.00604122 298.43625949 -0.00288167 299.74701804 -0.01207495 C339.2350312 0.32894725 374.61757888 32.22654033 374.66510403 72.7350111 C374.66894518 73.96796225 374.67278632 75.20091339 374.67674387 76.47122669 C374.67587738 77.81770472 374.6750109 79.16418274 374.67411816 80.55146313 C374.67857484 82.70657704 374.67857484 82.70657704 374.68312156 84.90522861 C374.69117622 88.88940307 374.69298028 92.87355949 374.69371903 96.85774112 C374.6955723 101.156517 374.7031211 105.45528358 374.70985425 109.75405407 C374.72342799 119.15309808 374.72946102 128.55213782 374.7338649 137.95118999 C374.73662939 143.82321799 374.74086717 149.69524435 374.74536908 155.56727123 C374.75756133 171.83377002 374.76786019 188.10026749 374.77124417 204.36677074 C374.77146373 205.40760492 374.7716833 206.4484391 374.77190952 207.5208137 C374.7721278 208.56410531 374.77234608 209.60739692 374.77257097 210.68230343 C374.77301443 212.79632346 374.77346099 214.91034349 374.77391064 217.02436352 C374.77413207 218.07298518 374.7743535 219.12160684 374.77458164 220.20200491 C374.77852733 237.18298366 374.79597457 254.16391944 374.81927016 271.14488161 C374.84300911 288.59027231 374.85544721 306.03564147 374.85661209 323.48104858 C374.85752751 333.27135909 374.86324612 343.06161363 374.8814317 352.85190868 C374.89686715 361.19092464 374.90193293 369.52986734 374.8936936 377.86889488 C374.88979904 382.11973553 374.89065791 386.37042879 374.90475094 390.62125111 C374.91992439 395.24042772 374.9115879 399.85927531 374.90116894 404.47846508 C374.91325355 406.47141346 374.91325355 406.47141346 374.92558229 408.50462341 C374.80498788 431.44945325 366.51820617 450.23043562 350.53367627 466.52289867 C349.93168408 467.14938305 349.32969189 467.77586742 348.70945752 468.42133617 C337.09788893 479.55433686 319.59709277 486.62899846 303.53017628 486.65711975 C301.75052587 486.66380652 301.75052587 486.66380652 299.93492293 486.67062837 C298.64039148 486.67044401 297.34586002 486.67025964 296.01210034 486.67006969 C293.93873239 486.67558473 293.93873239 486.67558473 291.82347822 486.68121117 C287.99137707 486.69031856 284.15931867 486.69494344 280.32721078 486.69760048 C276.19199553 486.70151195 272.05679258 486.71108977 267.9215852 486.71981335 C257.93653037 486.73955521 247.95147456 486.74964162 237.96640509 486.75854114 C233.25945168 486.76292825 228.55249938 486.76829401 223.84554684 486.77353001 C208.18983264 486.79054091 192.53411913 486.80503346 176.87839711 486.81227875 C172.81768937 486.81418852 168.75698164 486.81610887 164.69627392 486.81806469 C163.18244535 486.8187903 163.18244535 486.8187903 161.63803439 486.81953057 C145.30181088 486.82782483 128.96566073 486.85315216 112.62946923 486.88564537 C95.84173633 486.91876329 79.05404065 486.93673183 62.26627493 486.93992299 C52.84699678 486.94208383 43.42782559 486.95076985 34.00857937 486.97638416 C25.9839807 486.99815601 17.95951497 487.00610987 9.93489011 486.99641738 C5.84577422 486.99189123 1.75693224 486.99365976 -2.33214557 487.01317883 C-29.22382389 487.13448591 -50.61634722 485.23049228 -71.46632373 466.52289867 C-72.38091358 465.74752758 -72.38091358 465.74752758 -73.31397998 464.95649242 C-90.42366746 449.40577419 -95.78997733 427.04902295 -95.72702014 404.93775463 C-95.73084569 403.50152901 -95.73467124 402.0653034 -95.73861271 400.58555579 C-95.74884439 396.625986 -95.74672329 392.66650725 -95.74243212 388.70693016 C-95.73995604 384.42594153 -95.74899002 380.14497433 -95.75646961 375.86399364 C-95.76919465 367.48704141 -95.771013 359.11012127 -95.76866934 350.733161 C-95.7668834 343.92052386 -95.76864176 337.10789642 -95.77289379 330.29526043 C-95.77348898 329.32415451 -95.77408416 328.35304858 -95.77469739 327.35251521 C-95.7759092 325.37943405 -95.77712333 323.40635289 -95.77833977 321.43327174 C-95.78920707 302.9445749 -95.78705678 284.45589632 -95.78095492 265.96719846 C-95.77578773 249.07450807 -95.78703743 232.18187538 -95.80605314 215.2891964 C-95.82545273 197.92160969 -95.83368374 180.55405024 -95.82992989 163.18645263 C-95.8280209 153.4448146 -95.83047575 143.70322565 -95.84464443 133.96159649 C-95.85658633 125.66737416 -95.85793177 117.37323113 -95.84585426 109.07900766 C-95.83998496 104.85231523 -95.83881177 100.62576764 -95.85085666 96.39908504 C-95.86379681 91.80460224 -95.85320465 87.21046089 -95.84054554 82.61597729 C-95.84791982 81.29755943 -95.8552941 79.97914156 -95.86289185 78.62077165 C-95.75607145 60.10370698 -91.15516898 43.10382935 -79.46632373 28.52289867 C-78.81019092 27.69145336 -78.15405811 26.86000805 -77.47804248 26.00336742 C-57.0104845 1.64435418 -29.56916368 -0.0965301 0 0 Z " transform="translate(95.46632373332977,-0.5228986740112305)" style="fill: #163D8A;"/><path d="M0 0 C0.60457031 0.52851563 1.20914063 1.05703125 1.83203125 1.6015625 C70.55916816 64.37342057 -6.72332368 168.38052054 -48.49804688 222.05126953 C-49.97344596 223.96554708 -51.42042631 225.89806355 -52.859375 227.83984375 C-53.73078125 229.00644531 -54.6021875 230.17304688 -55.5 231.375 C-56.2528125 232.39335937 -57.005625 233.41171875 -57.78125 234.4609375 C-67.82673428 245.95665015 -75.20220147 235.20311715 -82.1875 226.5625 C-82.75992432 225.85512695 -83.33234863 225.14775391 -83.92211914 224.41894531 C-88.72603044 218.43198624 -93.24343159 212.2766331 -97.62207031 205.97119141 C-99.15697414 203.77544131 -100.71428071 201.59655973 -102.2734375 199.41796875 C-142.87432191 142.44749699 -191.21561709 65.24341958 -136 2 C-135.45859375 1.37351563 -134.9171875 0.74703125 -134.359375 0.1015625 C-97.94584985 -39.07056304 -36.88423668 -34.69247389 0 0 Z " transform="translate(412,137)" style="fill: #163D89;"/><path d="M0 0 C1.85118748 -0.00679667 1.85118748 -0.00679667 3.73977268 -0.01373065 C7.87504562 -0.02639055 12.01018712 -0.0247532 16.14547729 -0.02310181 C19.11060577 -0.02908612 22.07572395 -0.03583494 25.04084778 -0.04345703 C32.25995402 -0.06005255 39.47902759 -0.06556596 46.69815131 -0.06668179 C52.56935 -0.06763313 58.44053795 -0.07174776 64.31173325 -0.07808304 C80.97179915 -0.09569301 97.63183932 -0.10492252 114.2919146 -0.10342209 C115.18960103 -0.10334218 116.08728746 -0.10326227 117.01217651 -0.10317993 C118.36035811 -0.10305729 118.36035811 -0.10305729 119.73577569 -0.10293217 C134.29244368 -0.10211977 148.84900807 -0.1212464 163.4056461 -0.14945666 C178.36617203 -0.17821987 193.3266475 -0.19199501 208.28720176 -0.19026911 C216.68076126 -0.1896063 225.07421221 -0.1950504 233.46774673 -0.21662521 C240.61626813 -0.2348825 247.7646318 -0.23914733 254.91316648 -0.22560637 C258.55638185 -0.21909895 262.19923389 -0.22107374 265.84243202 -0.23631287 C269.80301821 -0.25180257 273.76281878 -0.24243088 277.72338867 -0.22705078 C279.42786201 -0.24248147 279.42786201 -0.24248147 281.16676915 -0.25822389 C292.91315951 -0.15791291 303.54629082 2.80555052 312.74264526 10.26742554 C313.36784058 10.76887085 313.99303589 11.27031616 314.63717651 11.78695679 C324.91978296 20.99425798 328.10804401 34.38671077 327.93795776 47.67758179 C327.93371292 48.95694862 327.93371292 48.95694862 327.92938232 50.26216125 C327.91830357 52.95156672 327.8932232 55.64062296 327.86764526 58.32992554 C327.85759952 60.16781131 327.84847648 62.00570237 327.84030151 63.84359741 C327.81840477 68.31833867 327.783962 72.79282317 327.74264526 77.26742554 C326.42264526 76.60742554 325.10264526 75.94742554 323.74264526 75.26742554 C322.68690308 74.78273804 321.63116089 74.29805054 320.54342651 73.79867554 C308.4650594 66.76535986 309.42134776 58.41234596 309.79733276 45.48226929 C310.148657 28.5582216 299.28187512 18.15940724 282.53259754 18.13599777 C281.4977242 18.13215663 280.46285085 18.12831548 279.39661771 18.12435794 C277.70111477 18.12565766 277.70111477 18.12565766 275.97135925 18.12698364 C274.16243731 18.12252696 274.16243731 18.12252696 272.31697148 18.11798024 C268.26525224 18.10929019 264.21356254 18.10778473 260.16183472 18.10629272 C257.26110267 18.10166477 254.36037123 18.09664015 251.4596405 18.09124756 C243.57108851 18.07767427 235.68254161 18.07164105 227.79397988 18.0672369 C222.86657558 18.06447271 217.93917323 18.06023502 213.01177025 18.05573273 C199.36427719 18.04354124 185.71678569 18.03324177 172.0692873 18.02985764 C171.1960656 18.02963807 170.32284389 18.0294185 169.42316092 18.02919228 C168.54787141 18.02897401 167.6725819 18.02875573 166.77076846 18.02853084 C164.99715253 18.02808737 163.22353659 18.02764081 161.44992065 18.02719116 C160.57014929 18.02696973 159.69037793 18.0267483 158.78394683 18.02652016 C144.53230589 18.02257315 130.2807161 18.00512153 116.02909491 17.98183164 C101.39070566 17.95810316 86.75234206 17.9456551 72.11393327 17.94448972 C63.89763139 17.94357378 55.68139617 17.93784209 47.46511269 17.9196701 C39.73573091 17.90263503 32.00647751 17.90102771 24.27708244 17.90980911 C21.44156175 17.91058018 18.6060343 17.90622768 15.7705307 17.89635086 C11.8964862 17.8836489 8.02289094 17.88949937 4.14884949 17.89993286 C3.0296678 17.89187646 1.91048612 17.88382005 0.75738984 17.87551951 C-20.05462452 18.00639684 -30.13905316 27.7250766 -30.81985474 48.82992554 C-30.88237427 49.69295288 -30.9448938 50.55598022 -31.00930786 51.44515991 C-31.1938973 58.64414803 -28.91144878 59.64631481 -22.25735474 61.26742554 C-13.09577896 66.47286632 -12.65900311 77.6627704 -12.76126099 87.11898804 C-12.75980576 88.21786346 -12.75835052 89.31673889 -12.7568512 90.44891357 C-12.75850129 92.75660878 -12.76996186 95.06431603 -12.790802 97.37191772 C-12.81983182 100.88964834 -12.81137562 104.4058757 -12.79837036 107.92367554 C-12.80460676 110.17628697 -12.81299693 112.42889369 -12.82376099 114.68148804 C-12.82082535 115.72438995 -12.81788971 116.76729187 -12.81486511 117.84179688 C-12.94275184 127.80498052 -14.70341136 137.74937373 -25.33180237 140.76202393 C-31.94512091 143.35816235 -31.66883151 147.03708176 -31.50369263 153.60385132 C-31.51639694 154.65460846 -31.52910126 155.7053656 -31.54219055 156.78796387 C-31.57093723 160.26469583 -31.52717549 163.73626903 -31.48001099 167.21273804 C-31.47912894 169.62361765 -31.48165088 172.03450072 -31.48744202 174.44537354 C-31.48864779 179.4982563 -31.45520237 184.5493672 -31.39627075 189.60189819 C-31.32242483 196.09076517 -31.32417246 202.57690934 -31.35039616 209.06605721 C-31.36400749 214.04353837 -31.34302223 219.02039044 -31.31088066 223.9977684 C-31.29863546 226.39083794 -31.29604597 228.78397639 -31.30311775 231.1770668 C-31.30675505 234.51602872 -31.26518812 237.85133764 -31.21072388 241.18978882 C-31.22018036 242.18619385 -31.22963684 243.18259888 -31.23937988 244.209198 C-31.06024901 250.94828049 -29.88866856 252.33069966 -23.25735474 253.26742554 C-16.03127506 258.40905915 -13.17659118 263.59153229 -13.08035278 272.44393921 C-13.06751755 273.47568771 -13.05468231 274.50743622 -13.04145813 275.57044983 C-13.0340712 276.6808815 -13.02668427 277.79131317 -13.01907349 278.93539429 C-13.01100174 280.08477982 -13.00292999 281.23416534 -12.99461365 282.41838074 C-12.98078587 284.85185239 -12.97005788 287.28534334 -12.96218872 289.71884155 C-12.94500023 293.42356563 -12.90110331 297.12739159 -12.85696411 300.83187866 C-12.84683451 303.19971066 -12.83831925 305.56755023 -12.83157349 307.93539429 C-12.8140654 309.0357048 -12.79655731 310.13601532 -12.77851868 311.26966858 C-12.80180373 319.60695941 -13.90476873 328.14192967 -21.75735474 332.76742554 C-22.51016724 333.23148804 -23.26297974 333.69555054 -24.03860474 334.17367554 C-26.25735474 335.26742554 -26.25735474 335.26742554 -30.25735474 336.26742554 C-30.65427507 339.24276538 -30.77632879 341.79406386 -30.69485474 344.76742554 C-30.67394775 346.0016626 -30.67394775 346.0016626 -30.65261841 347.26083374 C-30.0037164 368.59005255 -17.10631997 376.59464832 2.83709717 376.52812195 C4.05362665 376.5319475 5.27015614 376.53577304 6.52355015 376.53971452 C10.59906724 376.55003151 14.67444311 376.54605475 18.74996948 376.54208374 C21.67232392 376.54643092 24.59467721 376.55161409 27.51702881 376.55757141 C34.63052209 376.57031218 41.74397762 376.57211287 48.85748039 376.56977115 C54.64051697 376.5679871 60.42354209 376.56973948 66.2065773 376.57399559 C67.03008801 376.57459078 67.85359873 376.57518597 68.70206431 376.57579919 C70.375108 376.57701096 72.04815168 376.5782251 73.72119536 376.57944157 C89.40651666 376.59031475 105.09181645 376.58815569 120.77713896 376.58205672 C135.11986318 376.57688797 149.46251947 376.5881423 163.80523024 376.60715494 C178.53973344 376.62653689 193.2742045 376.6347887 208.00872052 376.63103169 C216.27805194 376.62912016 224.54732556 376.63160249 232.81664658 376.64574623 C240.59284378 376.65891215 248.36890284 376.65639511 256.14509964 376.64333534 C258.99877722 376.64096662 261.85246433 376.64371479 264.70613098 376.65195847 C268.60232106 376.66240203 272.49805253 376.65434359 276.39422607 376.64164734 C277.52273826 376.64902162 278.65125044 376.65639591 279.81395996 376.66399366 C298.09319062 376.53873382 310.04451664 367.54580528 309.77340698 348.30599976 C309.7500679 346.17129715 309.7500679 346.17129715 309.72625732 343.99346924 C309.71194986 342.85334192 309.71194986 342.85334192 309.69735336 341.69018173 C309.64535798 336.76909057 309.65156299 331.84763518 309.64599419 326.9263134 C309.63782973 322.62403017 309.61056028 318.32357239 309.54049683 314.02182007 C308.99018027 278.39720999 308.99018027 278.39720999 321.74264526 263.26742554 C322.69713699 261.79979581 323.6297031 260.317657 324.53903198 258.82162476 C326.74264526 255.26742554 326.74264526 255.26742554 327.74264526 255.26742554 C327.85071509 258.31749078 327.88939518 261.34517447 327.88790894 264.39608765 C327.89294685 265.85206863 327.89294685 265.85206863 327.89808655 267.33746338 C327.9076485 270.57324477 327.90954287 273.80897462 327.91061401 277.04476929 C327.91382512 279.28765383 327.91718907 281.53053815 327.92070007 283.77342224 C327.92670595 288.49058517 327.9285387 293.20772975 327.927948 297.92489624 C327.92784678 303.95729605 327.94145022 309.98957707 327.95872021 316.02194881 C327.96986939 320.66235387 327.97186624 325.30273059 327.97133827 329.94314766 C327.97251586 332.16579151 327.97692522 334.38843615 327.98467064 336.61106682 C327.99452061 339.73219815 327.99157172 342.85307683 327.98556519 345.97421265 C327.99118469 346.88627975 327.9968042 347.79834686 328.00259399 348.73805237 C327.8585386 378.34947694 306.14550839 394.80402841 278.04223633 394.65510559 C276.19204763 394.6631839 276.19204763 394.6631839 274.30448139 394.6714254 C270.19538722 394.68566628 266.08661696 394.67861053 261.97750854 394.67147827 C259.02164451 394.67718384 256.06578268 394.68414882 253.10992432 394.692276 C245.92877932 394.7094248 238.74772198 394.71031217 231.56656183 394.7050631 C225.72644232 394.70101278 219.88634861 394.70247516 214.04623032 394.70781136 C213.21331501 394.70855978 212.3803997 394.7093082 211.52224454 394.7100793 C209.82988191 394.71161086 208.13751929 394.71314921 206.44515668 394.71469427 C190.59372765 394.72840517 174.74234804 394.72299158 158.89092015 394.71150906 C144.40886686 394.70157852 129.92694138 394.71451674 115.4449078 394.73844325 C100.55205007 394.76286193 85.6592518 394.7724353 70.76637447 394.76579052 C62.41424077 394.7623044 54.06220532 394.76449012 45.71008682 394.78204155 C37.85499112 394.79834465 30.0001429 394.79353881 22.14505386 394.7747364 C19.26725307 394.77105451 16.38943417 394.77414722 13.51165009 394.78462219 C9.57316138 394.79786022 5.63547621 394.78625781 1.69702148 394.76863098 C0.56732535 394.77823599 -0.56237077 394.78784099 -1.72630012 394.79773706 C-32.63198382 394.51455016 -49.66066066 372.01643962 -47.82766724 342.42953491 C-47.63501639 336.26032931 -47.72817357 334.21929889 -54.25735474 334.26742554 C-61.82413529 330.18136404 -65.34594831 324.50325846 -65.43435669 316.00497437 C-65.44719193 314.92988113 -65.46002716 313.8547879 -65.47325134 312.74711609 C-65.48063828 311.58463852 -65.48802521 310.42216095 -65.49563599 309.22445679 C-65.50370773 308.02689255 -65.51177948 306.82932831 -65.52009583 305.59547424 C-65.53393652 303.0576726 -65.54465873 300.51985235 -65.55252075 297.98202515 C-65.56970957 294.11260368 -65.61359506 290.24404183 -65.65774536 286.37484741 C-65.6678745 283.90805681 -65.67638991 281.44125896 -65.68313599 278.97445679 C-65.70064407 277.82210037 -65.71815216 276.66974396 -65.7361908 275.48246765 C-65.71152734 266.28622427 -63.26626037 253.24917483 -51.61474609 253.27572632 C-46.06682863 251.60956086 -47.2819725 247.10052512 -47.35159302 242.07211304 C-47.33932678 241.00068054 -47.32706055 239.92924805 -47.31442261 238.8253479 C-47.28346924 235.26357971 -47.30405959 231.70422082 -47.32766724 228.14242554 C-47.32295644 225.68001841 -47.31616667 223.21761444 -47.30737305 220.75521851 C-47.29703131 215.58644719 -47.31212207 210.41852078 -47.34475708 205.24984741 C-47.38464219 198.60734824 -47.36169013 191.96682831 -47.31974983 185.32440186 C-47.29451591 180.23724312 -47.30247725 175.15055761 -47.32064438 170.06338501 C-47.32533096 167.61363494 -47.31952417 165.16384259 -47.30328751 162.71414185 C-47.28560591 159.29584142 -47.31246159 155.8807945 -47.35159302 152.46273804 C-47.3374234 151.43932312 -47.32325378 150.4159082 -47.30865479 149.36148071 C-47.45237277 142.62301355 -48.43456636 141.1444263 -55.25735474 141.26742554 C-57.36672974 140.10336304 -57.36672974 140.10336304 -59.00735474 138.64242554 C-59.55907349 138.17578491 -60.11079224 137.70914429 -60.67922974 137.22836304 C-65.91484364 130.72272398 -65.71134451 123.76697593 -65.69094849 115.83383179 C-65.69881126 114.04597511 -65.69881126 114.04597511 -65.70683289 112.22200012 C-65.71323984 109.7080971 -65.71193335 107.19416404 -65.70339966 104.68026733 C-65.69489073 100.84614386 -65.72367113 97.01351139 -65.75540161 93.17953491 C-65.75701387 90.73096765 -65.75643561 88.28239776 -65.75344849 85.83383179 C-65.77029945 84.12411949 -65.77029945 84.12411949 -65.78749084 82.37986755 C-65.7071664 73.14997286 -63.17545333 60.29261567 -51.57376099 60.25570679 C-46.09055586 58.62172458 -47.64883778 54.26734635 -48.00735474 49.39242554 C-48.07907532 47.46179815 -48.14038754 45.53075416 -48.19094849 43.59945679 C-48.21527954 42.67213745 -48.2396106 41.74481812 -48.26467896 40.78939819 C-48.250532 35.91813154 -47.09935938 31.73447324 -45.25735474 27.26742554 C-44.9286438 26.4230896 -44.59993286 25.57875366 -44.26126099 24.70883179 C-36.25339157 6.5040906 -18.70762344 -0.05039691 0 0 Z " transform="translate(95.25735473632813,45.732574462890625)" style="fill: #FEFEFE;"/><path d="M0 0 C0.639375 0.61488281 1.27875 1.22976562 1.9375 1.86328125 C35.40014599 36.74510196 13.97488533 89.10631197 -25.19921875 106.95703125 C-65.0750193 121.80617873 -111.96424465 91.3352004 -112.46850586 48.24731445 C-112.45827393 47.23757568 -112.44804199 46.22783691 -112.4375 45.1875 C-112.42920166 44.12942139 -112.42090332 43.07134277 -112.41235352 41.98120117 C-112.24174064 34.08140006 -111.31703487 27.24614165 -108 20 C-107.2884375 18.39511719 -107.2884375 18.39511719 -106.5625 16.7578125 C-98.63158292 0.55281365 -85.64026045 -10.5287876 -69 -17 C-68.21882813 -17.32097656 -67.43765625 -17.64195312 -66.6328125 -17.97265625 C-42.42117493 -26.28815478 -17.47977905 -17.15498585 0 0 Z " transform="translate(207,198)" style="fill: #FEFEFE;"/><path d="M0 0 C0.60457031 0.52851563 1.20914063 1.05703125 1.83203125 1.6015625 C70.55916816 64.37342057 -6.72332368 168.38052054 -48.49804688 222.05126953 C-49.97344596 223.96554708 -51.42042631 225.89806355 -52.859375 227.83984375 C-53.73078125 229.00644531 -54.6021875 230.17304688 -55.5 231.375 C-56.2528125 232.39335937 -57.005625 233.41171875 -57.78125 234.4609375 C-67.82673428 245.95665015 -75.20220147 235.20311715 -82.1875 226.5625 C-82.75992432 225.85512695 -83.33234863 225.14775391 -83.92211914 224.41894531 C-88.72603044 218.43198624 -93.24343159 212.2766331 -97.62207031 205.97119141 C-99.15697414 203.77544131 -100.71428071 201.59655973 -102.2734375 199.41796875 C-142.87432191 142.44749699 -191.21561709 65.24341958 -136 2 C-135.45859375 1.37351563 -134.9171875 0.74703125 -134.359375 0.1015625 C-97.94584985 -39.07056304 -36.88423668 -34.69247389 0 0 Z M-124 14 C-124.66515625 14.65613281 -125.3303125 15.31226563 -126.015625 15.98828125 C-135.94248338 26.42936878 -140.64224287 39.29516296 -144 53 C-144.30164063 54.22783203 -144.30164063 54.22783203 -144.609375 55.48046875 C-150.14898417 91.21094787 -127.73686753 127.82129175 -110 157 C-109.48147461 157.85368164 -108.96294922 158.70736328 -108.42871094 159.58691406 C-97.31687039 177.76400306 -84.9736835 195.11011173 -72 212 C-71.31164062 213.01191406 -70.62328125 214.02382813 -69.9140625 215.06640625 C-65.31558736 219.71180461 -60.95616187 211.45091821 -58.25 207.8125 C-57.68998291 207.0685498 -57.12996582 206.32459961 -56.55297852 205.55810547 C-31.76985723 172.34431253 -6.7521633 135.78780365 6.30078125 96.11962891 C6.94447028 94.16833416 7.6267255 92.22987352 8.3125 90.29296875 C24.24316959 40.1224225 -16.30227023 -11.95928067 -68.39453125 -11.15234375 C-90.26749403 -9.87341489 -108.65867892 -1.73647632 -124 14 Z " transform="translate(412,137)" style="fill: #FDFEFE;"/><path d="M0 0 C-8.04648479 34.48493483 -46.50373678 53.47619636 -78.25 35.5 C-79.82088234 34.43780943 -81.36291877 33.33184719 -82.875 32.1875 C-83.71546875 31.56230469 -84.5559375 30.93710938 -85.421875 30.29296875 C-113.23152238 7.58175672 -110.22580117 -37.25030494 -79.8125 -56.3125 C-39.44680598 -78.10226158 8.75664574 -46.71928053 0 0 Z " transform="translate(396.875,215.8125)" style="fill: #FDFEFE;"/><path d="M0 0 C-1.18849642 6.15707173 -3.38097092 6.95533248 -8.94140625 9.109375 C-26.63029829 16.79916252 -24.08815418 42.06888915 -13.81640625 54.390625 C0.2465164 68.50924239 25.45442179 64.95797089 34.65625 47.12109375 C40.49934355 32.51335988 37.20276838 12.88196114 20.71875 7.49609375 C15.00832599 5.0475199 15.13389276 0.61833753 15.03125 -5.00390625 C15.00232666 -5.85065918 14.97340332 -6.69741211 14.94360352 -7.56982422 C15.23184845 -16.21717216 20.29615149 -13.91944665 26.7734375 -11.75390625 C58.41791478 4.01358416 65.20547685 42.44958559 41.53125 68.62109375 C15.36537009 93.36159499 -24.13914313 81.39187776 -37.75 50.3515625 C-42.01111411 38.74002655 -41.57513548 23.35477056 -35.84375 12.37109375 C-35.39644531 11.50097656 -34.94914062 10.63085938 -34.48828125 9.734375 C-27.16246235 -3.40496239 1.22335889 -27.55418364 0 0 Z " transform="translate(151.84375,209.62890625)" style="fill: #193D85;"/><path d="M0 0 C-5.38210165 26.22963999 -30.15934903 39.59067751 -54.34375 26.66796875 C-76.11583095 12.99638263 -77.12360378 -17.51971617 -57.0625 -33.3125 C-31.87870793 -50.99882726 3.14638402 -30.96940845 0 0 Z " transform="translate(381,209)" style="fill: #163D89;"/><path d="M0 0 C1.258125 -0.00515625 2.51625 -0.0103125 3.8125 -0.015625 C8.82025892 0.40168824 9.24996547 2.18780207 9.25878906 6.75976562 C9.26509338 7.69413452 9.27139771 8.62850342 9.27789307 9.59118652 C9.2738446 10.60265747 9.26979614 11.61412842 9.265625 12.65625 C9.26753845 13.69189087 9.2694519 14.72753174 9.27142334 15.79455566 C9.27278597 17.98690025 9.26908414 20.17925289 9.26074219 22.37158203 C9.25004392 25.73618616 9.26063503 29.10025632 9.2734375 32.46484375 C9.27211592 34.59114702 9.26955356 36.71744995 9.265625 38.84375 C9.26967346 39.85522095 9.27372192 40.86669189 9.27789307 41.90881348 C9.27158875 42.84318237 9.26528442 43.77755127 9.25878906 44.74023438 C9.25640228 45.97694885 9.25640228 45.97694885 9.25396729 47.23864746 C8.5939694 52.46565304 4.21167266 51.51726095 0 51.5 C-1.258125 51.50515625 -2.51625 51.5103125 -3.8125 51.515625 C-8.82025892 51.09831176 -9.24996547 49.31219793 -9.25878906 44.74023438 C-9.26509338 43.80586548 -9.27139771 42.87149658 -9.27789307 41.90881348 C-9.2738446 40.89734253 -9.26979614 39.88587158 -9.265625 38.84375 C-9.26753845 37.80810913 -9.2694519 36.77246826 -9.27142334 35.70544434 C-9.27278597 33.51309975 -9.26908414 31.32074711 -9.26074219 29.12841797 C-9.25004392 25.76381384 -9.26063503 22.39974368 -9.2734375 19.03515625 C-9.27211592 16.90885298 -9.26955356 14.78255005 -9.265625 12.65625 C-9.26967346 11.64477905 -9.27372192 10.63330811 -9.27789307 9.59118652 C-9.27158875 8.65681763 -9.26528442 7.72244873 -9.25878906 6.75976562 C-9.25719788 5.93528931 -9.25560669 5.11081299 -9.25396729 4.26135254 C-8.5939694 -0.96565304 -4.21167266 -0.01726095 0 0 Z " transform="translate(56,313.75)" style="fill: #1C4086;"/><path d="M0 0 C0.0033284 1.03705582 0.0066568 2.07411163 0.01008606 3.14259338 C0.01515985 5.34090734 0.01749425 7.53922902 0.01733398 9.73754883 C0.01951963 13.11096826 0.03766839 16.48406042 0.05664062 19.85742188 C0.05957455 21.98828013 0.06155935 24.11913994 0.0625 26.25 C0.06968552 27.264608 0.07687103 28.279216 0.08427429 29.3245697 C0.08119766 30.26216629 0.07812103 31.19976288 0.07495117 32.16577148 C0.07637619 32.99326401 0.07780121 33.82075653 0.07926941 34.67332458 C-0.56210339 39.90853055 -4.95695583 38.9586645 -9.16796875 38.94140625 C-10.42609375 38.9465625 -11.68421875 38.95171875 -12.98046875 38.95703125 C-18.00006343 38.53873169 -18.41877528 36.74543626 -18.41088867 32.16577148 C-18.4139653 31.2281749 -18.41704193 30.29057831 -18.42021179 29.3245697 C-18.41302628 28.3099617 -18.40584076 27.2953537 -18.3984375 26.25 C-18.39797928 25.21198746 -18.39752106 24.17397491 -18.39704895 23.10450745 C-18.39402458 20.90795754 -18.3861328 18.71140982 -18.3737793 16.51489258 C-18.35552555 13.13940903 -18.35326954 9.76419961 -18.35351562 6.38867188 C-18.34860052 4.25911219 -18.34277224 2.12955438 -18.3359375 0 C-18.33482468 -1.01663223 -18.33371185 -2.03326447 -18.33256531 -3.08070374 C-18.27618529 -11.33857349 -18.27618529 -11.33857349 -11.91796875 -11.93359375 C-10.48710938 -12.07667969 -10.48710938 -12.07667969 -9.02734375 -12.22265625 C0.89846419 -12.52097288 -0.0095829 -8.75456234 0 0 Z " transform="translate(65.16796875,133.30859375)" style="fill: #1A3F85;"/><path d="M0 0 C1.3406999 12.06629913 -6.12636369 18.84282186 -18 17 C-27.01947356 12.8243178 -29.49851511 3.54936879 -24.1875 -4.875 C-16.28726639 -12.54951265 -4.17034752 -10.19418283 0 0 Z " transform="translate(173,239)" style="fill: #1A3E83;"/></svg>